<?xml version="1.0" encoding="utf-8"?>
<!-- Generator: Adobe Illustrator 24.3.0, SVG Export Plug-In . SVG Version: 6.00 Build 0)  -->
<svg version="1.1" id="Layer_2" xmlns="http://www.w3.org/2000/svg" xmlns:xlink="http://www.w3.org/1999/xlink" x="0px" y="0px"
	 viewBox="0 0 1000 1000" style="enable-background:new 0 0 1000 1000;" xml:space="preserve">
<g>
	<polygon points="764.95,745.5 768.66,665.97 772.6,586.45 774.59,546.7 776.67,506.95 780.84,427.45 789.49,268.47 798.48,109.51 
		812.98,113.31 737.6,272.63 661.94,431.82 586.01,590.89 509.83,749.83 501.37,767.49 492.04,750.26 407.61,594.36 323.44,438.31 
		239.53,282.12 155.9,125.79 170.25,121.2 188.29,279.48 206,437.79 214.68,516.97 223.28,596.16 231.75,675.36 239.98,754.6 
		228.88,675.71 218.01,596.8 207.28,517.88 196.63,438.94 175.66,281.02 155.03,123.06 149.78,82.86 169.37,118.48 254.83,273.82 
		340.02,429.32 424.94,584.95 509.61,740.73 491.81,741.17 568.27,582.36 644.98,423.68 721.96,265.12 799.21,106.69 816.59,71.07 
		813.71,110.49 802.13,269.28 790.21,428.05 784.09,507.43 781.03,547.11 777.87,586.79 771.53,666.15 	"/>
</g>
<g>
	<polygon points="136.31,704.55 121.36,640.37 106.63,576.16 99.28,544.05 92.02,511.92 77.52,447.65 73,427.65 85.66,443.94 
		118.32,485.98 150.92,528.06 215.98,612.33 218.82,616.02 216.42,620.16 165.33,708.26 114.1,796.27 115.3,791.88 115.47,821.33 
		113.5,815.79 163.18,876.2 154.93,872.88 241.28,861.84 327.65,850.94 500.42,829.36 501.61,829.21 502.8,829.35 594.54,840.1 
		686.27,850.93 869.69,872.93 860.24,878.4 891.91,805.77 891.2,809.2 891.43,769.76 892.84,774.44 836.7,688.33 780.71,602.11 
		777.74,597.55 781.43,593.73 848.02,524.69 881.36,490.21 914.76,455.79 925.21,445.02 922.38,459.62 910.37,521.65 898.24,583.65 
		886,645.63 873.57,707.58 883.35,645.16 893.33,582.77 903.42,520.4 913.62,458.06 921.24,461.89 888.81,497.24 856.33,532.53 
		791.27,603.02 791.99,594.64 849.54,679.82 906.95,765.09 908.35,767.16 908.36,769.76 908.59,809.2 908.6,810.94 907.89,812.63 
		877.02,885.6 874.38,891.84 867.57,891.07 684.01,870.35 592.24,859.82 500.49,849.21 502.87,849.2 330.05,870.34 243.62,880.8 
		157.18,891.12 152.09,891.73 148.93,887.8 99.87,826.88 97.88,824.41 97.9,821.33 98.07,791.88 98.09,789.47 99.27,787.5 
		151.72,700.21 204.3,612.99 204.75,620.82 141.44,535.23 109.86,492.37 78.34,449.47 86.48,445.76 99.13,510.42 105.45,542.75 
		111.67,575.1 124.1,639.8 	"/>
</g>
<g>
	<path d="M519.82,809.2c2.9-7.23,5.94-14.39,9.11-21.47c3.14-7.1,6.39-14.13,9.67-21.15c6.59-14.02,13.45-27.88,20.46-41.66
		l5.3-10.31l5.38-10.26c3.57-6.85,7.27-13.63,10.93-20.43c3.66-6.8,7.45-13.53,11.16-20.29l11.39-20.16l7.23-12.8l9.21,11.47
		l14.51,18.09c4.76,6.09,9.58,12.14,14.3,18.26c4.7,6.14,9.46,12.23,14.09,18.43l6.97,9.27l6.89,9.34
		c9.15,12.49,18.16,25.08,26.92,37.88c4.37,6.41,8.71,12.84,12.95,19.35c4.26,6.49,8.41,13.08,12.44,19.77
		c-5.71-5.32-11.3-10.74-16.77-16.25c-5.5-5.49-10.89-11.07-16.26-16.67c-10.71-11.22-21.17-22.64-31.5-34.16l-7.71-8.67l-7.63-8.74
		c-5.11-5.81-10.09-11.72-15.12-17.59c-5.01-5.89-9.94-11.85-14.91-17.76l-14.7-17.94l16.44-1.33l-11.63,20.03
		c-3.96,6.63-7.84,13.3-11.86,19.9c-4.01,6.6-7.99,13.22-12.09,19.76l-6.13,9.84l-6.21,9.79c-8.34,13.02-16.82,25.95-25.58,38.73
		c-4.39,6.38-8.81,12.75-13.35,19.04C529.23,796.79,524.59,803.03,519.82,809.2z"/>
</g>
<g>
	<path d="M694.19,777.35c-3.92,4.74-8.16,9-12.47,13.14c-4.31,4.14-8.76,8.06-13.3,11.85l-3.41,2.83l-3.46,2.75
		c-2.3,1.85-4.63,3.64-6.99,5.4c-4.7,3.53-9.48,6.93-14.33,10.23l-3.8,2.58l-4.87-1.63c-14.68-4.91-29.08-10.59-43.13-17.23
		c-7.01-3.35-13.95-6.92-20.76-10.82c-6.8-3.93-13.53-8.06-19.95-13.04c8.12,0.33,15.93,1.5,23.66,2.89
		c7.72,1.4,15.32,3.15,22.85,5.11c15.02,3.98,29.7,8.91,44.09,14.62l-8.67,0.95c5.02-3.02,10.12-5.94,15.29-8.73
		c2.58-1.4,5.19-2.77,7.83-4.08l3.95-1.99l4-1.91c5.34-2.54,10.77-4.93,16.33-7.11C682.6,780.98,688.24,778.92,694.19,777.35z"/>
</g>
<g>
	<path d="M780.16,664.35l7.47-11.63l0.37-0.58l0.37,0.62l19.44,32.08L827.13,717l19.28,32.17l19.17,32.24l2.63,4.42l-5.09,1.5
		l-44.19,13.03l-1.75,0.52l-1.81-0.87l-54.76-26.39l-1.18-0.57l-0.92-1.19l-39.83-51.38l-39.72-51.47l-39.62-51.54l-39.51-51.63
		l-0.76-0.99l-0.48-1.29l-25.94-68.85l-25.81-68.9l-25.69-68.94l-25.58-68.98l18.51,0.59l-30.51,68.93l-30.63,68.88l-30.76,68.83
		l-30.9,68.77l-0.35,0.79l-0.3,0.47l-35.46,55.43l-35.57,55.36l-35.69,55.28l-35.83,55.2l-0.89,1.37l-1.29,0.64
		c-16.61,8.3-33.19,16.66-49.83,24.9l-1.92,0.95l-1.82-0.7l-37.57-14.42l-4.01-1.54l1.83-3.71l15.02-30.42l15.15-30.36l15.16-30.36
		l15.28-30.3l0.53-1.05l0.42,1.06l6.1,15.37l-7.06-14.96l0.95,0.01l-13.52,31.12l-13.64,31.07l-13.65,31.07l-13.78,31l-2.18-5.25
		l38.13,12.89l-3.74,0.25c16.27-8.95,32.6-17.79,48.91-26.67l-2.18,2.01l34.11-56.28l34.25-56.19l34.37-56.12l34.48-56.05
		l-0.65,1.26l29.99-69.25l30.13-69.19l30.26-69.14l30.38-69.09l9.96-22.64l8.56,23.23l25.44,69.04l25.33,69.08l25.21,69.12
		l25.07,69.17l-1.24-2.28l38.66,52.26l38.55,52.35l38.45,52.43l38.33,52.51l-2.1-1.76l53.85,28.21l-3.55-0.36l44.68-11.24
		l-2.46,5.92l-17.86-32.98l-17.75-33.04l-17.71-33.06l-17.59-33.13l0.75,0.03L780.16,664.35z"/>
</g>
<g>
	<path d="M266.31,819.82c4.1-7.79,8.34-15.49,12.71-23.09c2.16-3.82,4.39-7.59,6.58-11.38l6.71-11.3
		c9-15.02,18.27-29.86,27.73-44.56c4.7-7.38,9.52-14.66,14.31-21.97c4.84-7.27,9.68-14.55,14.59-21.77
		c4.94-7.2,9.81-14.46,14.83-21.6c4.99-7.17,9.97-14.34,15.06-21.44l8.88-12.39l7.77,12.96l6.04,10.08l5.95,10.13l5.94,10.14
		l5.85,10.19c7.82,13.58,15.41,27.29,22.92,41.06c7.46,13.8,14.77,27.68,21.85,41.71c7.06,14.04,13.97,28.16,20.33,42.63
		c-9.88-12.33-19.2-25-28.37-37.76c-9.15-12.77-18.07-25.68-26.85-38.68c-8.72-13.03-17.36-26.11-25.78-39.33l-6.33-9.9l-6.23-9.96
		l-6.22-9.97l-6.14-10.02l16.65,0.57c-4.97,7.18-10.04,14.29-15.1,21.41c-5.03,7.14-10.22,14.17-15.33,21.25
		c-5.15,7.06-10.36,14.06-15.58,21.07c-5.27,6.97-10.5,13.97-15.86,20.88c-10.65,13.86-21.49,27.59-32.6,41.13l-8.37,10.13
		c-2.83,3.35-5.63,6.72-8.5,10.04C278.09,806.74,272.27,813.33,266.31,819.82z"/>
</g>
<g>
	<path d="M305.81,784.93c3.63,0.18,7.17,0.6,10.67,1.1c1.76,0.23,3.49,0.54,5.23,0.81l5.18,0.95c6.88,1.33,13.63,2.98,20.31,4.82
		c6.69,1.82,13.28,3.88,19.8,6.12c6.52,2.24,12.97,4.66,19.35,7.25l-7.7,0.16c5.74-2.47,11.53-4.81,17.4-7
		c5.86-2.19,11.82-4.17,17.82-6.04c6.03-1.82,12.12-3.49,18.33-4.91c6.22-1.39,12.5-2.64,19.05-3.26
		c-4.87,4.43-10.02,8.24-15.23,11.9c-5.22,3.64-10.56,7.02-15.96,10.26c-5.42,3.18-10.89,6.26-16.46,9.12
		c-5.56,2.87-11.19,5.59-16.88,8.17l-3.72,1.69l-3.98-1.53c-6.43-2.47-12.79-5.11-19.09-7.92c-6.29-2.81-12.52-5.81-18.64-9.05
		c-6.14-3.21-12.19-6.62-18.13-10.35l-4.43-2.84c-1.46-1-2.93-1.95-4.38-2.98C311.46,789.38,308.59,787.28,305.81,784.93z"/>
</g>
</svg>
